<svg viewBox="0 0 150 150" xmlns="http://www.w3.org/2000/svg">
    <rect width="150" height="150" style="fill: rgb(176, 222, 47);"></rect>
    <path d="M 30.328 96.357 L 30.328 61.797 L 18.448 61.797 L 18.448 54.357 L 49.888 54.357 L 49.888 61.797 L 38.008 61.797 L 38.008 96.357 Z M 65.002 96.957 Q 60.112 96.957 56.662 94.827 Q 53.212 92.697 51.397 89.157 Q 49.582 85.617 49.582 81.417 Q 49.582 77.187 51.397 73.617 Q 53.212 70.047 56.662 67.902 Q 60.112 65.757 65.002 65.757 Q 69.892 65.757 73.342 67.902 Q 76.792 70.047 78.607 73.617 Q 80.422 77.187 80.422 81.417 Q 80.422 85.617 78.607 89.157 Q 76.792 92.697 73.342 94.827 Q 69.892 96.957 65.002 96.957 Z M 65.002 90.837 Q 68.752 90.837 70.777 88.212 Q 72.802 85.587 72.802 81.417 Q 72.802 77.187 70.777 74.532 Q 68.752 71.877 65.002 71.877 Q 61.282 71.877 59.242 74.532 Q 57.202 77.187 57.202 81.417 Q 57.202 85.587 59.242 88.212 Q 61.282 90.837 65.002 90.837 Z M 82.882 106.677 L 82.222 100.077 Q 84.802 100.077 85.942 98.982 Q 87.082 97.887 87.082 94.917 L 87.082 54.357 L 94.762 54.357 L 94.762 96.597 Q 94.762 102.087 92.152 104.382 Q 89.542 106.677 85.042 106.677 Z M 117.984 96.957 Q 112.554 96.957 108.939 94.782 Q 105.324 92.607 103.524 89.022 Q 101.724 85.437 101.724 81.177 Q 101.724 77.067 103.419 73.587 Q 105.114 70.107 108.384 67.992 Q 111.654 65.877 116.364 65.877 Q 120.684 65.877 123.564 67.647 Q 126.444 69.417 127.884 72.372 Q 129.324 75.327 129.324 78.897 Q 129.324 79.887 129.204 80.892 Q 129.084 81.897 128.844 82.977 L 109.464 82.977 Q 109.884 85.767 111.219 87.492 Q 112.554 89.217 114.489 90.027 Q 116.424 90.837 118.644 90.837 Q 121.254 90.837 123.504 90.162 Q 125.754 89.487 127.644 88.377 L 128.004 94.677 Q 126.294 95.577 123.744 96.267 Q 121.194 96.957 117.984 96.957 Z M 109.644 77.937 L 121.764 77.937 Q 121.764 76.587 121.254 75.222 Q 120.744 73.857 119.559 72.927 Q 118.374 71.997 116.364 71.997 Q 113.484 71.997 111.834 73.677 Q 110.184 75.357 109.644 77.937 Z" style="fill: rgb(23, 24, 17);"></path>
</svg>